<svg width="358" height="171" viewBox="0 0 358 171" fill="none" xmlns="http://www.w3.org/2000/svg">
<g filter="url(#filter0_g_11_91)">
<path d="M16.4178 76.6957C16.4178 73.9063 16.4344 70.486 16.4676 66.4348C16.5008 62.3836 16.5506 58.0169 16.6171 53.3348C16.7167 48.6526 16.8163 43.9206 16.9159 39.1389C17.0155 34.3571 17.1318 29.8244 17.2646 25.5407C17.3974 21.257 17.5468 17.5047 17.7129 14.2836C19.1408 14.1508 20.8011 14.0512 22.6939 13.9848C24.6199 13.8851 26.5127 13.8187 28.3722 13.7855C30.2318 13.7191 31.8091 13.6859 33.1042 13.6859C34.3993 13.6527 35.1298 13.6361 35.2959 13.6361C35.3623 13.7689 35.6113 14.6157 36.043 16.1764C36.5079 17.7371 37.1056 19.7627 37.8362 22.2532C38.5667 24.7437 39.3471 27.4833 40.1772 30.4719C41.0406 33.4605 41.904 36.5155 42.7674 39.637C43.6307 42.7252 44.4277 45.6474 45.1583 48.4036C45.922 51.1597 46.5529 53.534 47.051 55.5264C47.5491 57.5188 47.848 58.8803 47.9476 59.6108L46.3537 59.8101C46.719 58.8139 47.2503 57.1867 47.9476 54.9287C48.6782 52.6374 49.5083 49.9975 50.4381 47.0089C51.3679 43.9871 52.3143 40.8158 53.2773 37.4951C54.2735 34.1745 55.2199 30.9534 56.1165 27.832C57.0463 24.6773 57.8432 21.8714 58.5074 19.4141C59.1715 16.9236 59.6364 15.0308 59.9021 13.7357C61.1639 13.7357 62.7578 13.7689 64.6838 13.8353C66.6098 13.9017 68.5524 14.0014 70.5116 14.1342C72.4708 14.2338 74.0813 14.3998 75.3432 14.6323C76.0073 17.6873 76.4722 21.6555 76.7379 26.5369C77.0035 31.3851 77.1364 36.5321 77.1364 41.978C77.1364 46.1953 77.0865 50.479 76.9869 54.8291C76.8873 59.1459 76.7379 63.1972 76.5386 66.9827C76.3726 70.7351 76.19 73.8731 75.9907 76.3968C74.5628 76.3968 73.0021 76.3802 71.3086 76.347C69.6482 76.2806 68.0543 76.1976 66.5268 76.098C65.0325 75.9652 63.8371 75.8821 62.9405 75.8489C63.1397 73.292 63.3057 70.1872 63.4386 66.5344C63.6046 62.8485 63.7374 59.0629 63.8371 55.1777C63.9035 52.7868 63.9533 50.3461 63.9865 47.8556C64.0197 45.3651 64.0529 43.0905 64.0861 41.0317C64.1193 38.9396 64.1359 37.3457 64.1359 36.2499C63.7706 37.6446 63.2227 39.4875 62.4922 41.7788C61.7948 44.0701 60.9979 46.5938 60.1013 49.3499C59.2047 52.1061 58.2583 54.8955 57.2621 57.718C56.2991 60.5406 55.3693 63.2138 54.4728 65.7375C53.6094 68.2612 52.829 70.4362 52.1317 72.2626C51.4675 74.0558 50.9694 75.2844 50.6374 75.9485C50.2057 75.9818 49.5582 76.015 48.6948 76.0482C47.8646 76.0482 47.2171 76.0482 46.7522 76.0482C45.922 76.0482 45.0752 76.015 44.2119 75.9485C43.3485 75.8489 42.4021 75.7493 41.3727 75.6497C41.3063 75.2512 41.0904 74.338 40.7252 72.9101C40.3599 71.4822 39.895 69.6891 39.3305 67.5306C38.766 65.3722 38.1516 62.9979 37.4875 60.4078C36.8234 57.8177 36.1426 55.1777 35.4453 52.488C34.7479 49.765 34.0506 47.1417 33.3533 44.618C32.6891 42.0943 32.0748 39.8196 31.5103 37.794C30.979 35.7352 30.5307 34.108 30.1654 32.9126C30.1654 36.1005 30.1654 39.5706 30.1654 43.3229C30.1986 47.0421 30.2152 50.7446 30.2152 54.4306C30.2152 58.1165 30.2152 61.5202 30.2152 64.6417C30.2484 67.7631 30.265 70.3864 30.265 72.5117C30.265 74.6037 30.265 75.9153 30.265 76.4466C29.2356 76.4799 27.924 76.5131 26.33 76.5463C24.7361 76.5795 23.0758 76.6127 21.349 76.6459C19.6223 76.6791 17.9785 76.6957 16.4178 76.6957ZM97.4667 77.2436C96.7029 77.2436 95.6735 77.227 94.3784 77.1938C93.1166 77.1606 91.7551 77.1108 90.294 77.0444C88.8329 76.978 87.4216 76.9115 86.0601 76.8451C84.6987 76.8119 83.5696 76.7621 82.6731 76.6957C83.0051 74.7365 83.4866 72.1796 84.1175 69.0249C84.7817 65.8703 85.5288 62.3338 86.359 58.4154C87.2224 54.497 88.1356 50.396 89.0986 46.1123C90.0948 41.8286 91.091 37.5782 92.0872 33.3609C93.1166 29.1436 94.1128 25.1588 95.0758 21.4065C96.0388 17.6209 96.9021 14.3168 97.6659 11.4943C100.588 11.0958 103.627 10.7471 106.781 10.4482C109.936 10.1494 113.041 9.99995 116.096 9.99995C117.723 9.99995 119.35 10.0498 120.977 10.1494C122.604 10.249 124.198 10.3984 125.759 10.5977C126.423 13.5199 127.07 16.9236 127.701 20.8087C128.366 24.6607 129.03 29.1934 129.694 34.4069C130.358 39.6204 131.022 45.6806 131.686 52.5876C132.35 59.4614 133.014 67.3812 133.679 76.347C132.682 76.5131 131.288 76.6625 129.495 76.7953C127.735 76.9281 125.892 77.0278 123.966 77.0942C122.04 77.1938 120.33 77.2436 118.835 77.2436C118.769 76.2806 118.702 75.135 118.636 73.8067C118.57 72.4452 118.503 70.9841 118.437 69.4234C118.37 67.8627 118.304 66.302 118.237 64.7413C118.171 63.1473 118.105 61.6364 118.038 60.2086C117.972 58.7475 117.922 57.4856 117.889 56.423C116.826 56.423 115.631 56.4562 114.302 56.5226C112.974 56.589 111.613 56.672 110.218 56.7717C108.823 56.8381 107.495 56.9377 106.233 57.0705C105.005 57.1701 103.925 57.2698 102.996 57.3694C102.066 57.469 101.418 57.552 101.053 57.6184C100.522 60.0757 100.007 62.5496 99.5089 65.0401C99.044 67.4974 98.6289 69.8053 98.2636 71.9637C97.9316 74.089 97.6659 75.8489 97.4667 77.2436ZM102.896 45.5644C103.793 45.3983 105.137 45.2323 106.931 45.0663C108.757 44.867 110.65 44.701 112.609 44.5682C114.601 44.4353 116.245 44.3523 117.54 44.3191C117.474 43.489 117.374 42.0611 117.241 40.0355C117.142 37.9766 117.009 35.7352 116.843 33.3111C116.71 30.8538 116.561 28.5791 116.395 26.4871C116.262 24.3951 116.112 22.8842 115.946 21.9544C115.348 21.9544 114.452 21.9876 113.256 22.054C112.094 22.1204 110.965 22.2034 109.869 22.3031C108.774 22.4027 107.993 22.4691 107.528 22.5023C107.329 23.4321 107.047 24.7604 106.682 26.4871C106.316 28.2139 105.918 30.1731 105.486 32.3647C105.054 34.5563 104.606 36.7978 104.141 39.0891C103.676 41.3471 103.261 43.5056 102.896 45.5644ZM137.269 23.1498C137.136 22.4857 137.003 21.5725 136.87 20.4103C136.771 19.2148 136.671 17.9696 136.571 16.6745C136.505 15.3794 136.455 14.2172 136.422 13.1878C136.389 12.1252 136.372 11.3946 136.372 10.9962C140.125 10.7305 144.392 10.4981 149.173 10.2988C153.988 10.0996 158.853 9.99995 163.768 9.99995C167.454 9.99995 171.023 10.083 174.477 10.249C177.964 10.3818 181.152 10.6475 184.041 11.046C184.074 13.4036 184.007 15.6451 183.841 17.7703C183.675 19.8624 183.476 21.4563 183.244 22.5521C182.579 22.5521 181.616 22.5521 180.355 22.5521C179.093 22.5189 177.681 22.4857 176.121 22.4525C174.56 22.4193 173.016 22.4027 171.488 22.4027C169.961 22.3695 168.633 22.3529 167.504 22.3529C167.537 23.5815 167.587 25.4245 167.653 27.8818C167.753 30.3059 167.869 33.1118 168.002 36.2997C168.135 39.4875 168.267 42.8248 168.4 46.3115C168.566 49.7982 168.716 53.2351 168.848 56.6222C168.981 60.0093 169.098 63.1141 169.197 65.9367C169.33 68.7593 169.43 71.0838 169.496 72.9101C169.596 74.7365 169.645 75.8489 169.645 76.2474C168.483 76.4134 166.956 76.5629 165.063 76.6957C163.203 76.8617 161.344 76.978 159.484 77.0444C157.625 77.144 156.114 77.1938 154.951 77.1938C154.852 75.2346 154.752 72.8105 154.653 69.9215C154.553 67.0325 154.47 63.8945 154.404 60.5074C154.337 57.0871 154.271 53.6004 154.204 50.0473C154.138 46.461 154.088 42.9742 154.055 39.5872C154.022 36.2001 154.005 33.0952 154.005 30.2727C154.005 28.7452 154.005 27.3339 154.005 26.0388C154.005 24.7437 154.022 23.5815 154.055 22.5521C152.859 22.6185 151.531 22.6849 150.07 22.7513C148.642 22.7845 147.164 22.8344 145.637 22.9008C144.109 22.9672 142.632 23.017 141.204 23.0502C139.776 23.0834 138.464 23.1166 137.269 23.1498ZM238.049 64.3926C236.388 66.5842 234.363 68.6431 231.972 70.5691C229.581 72.4618 226.858 74.0226 223.803 75.2512C220.748 76.4466 217.411 77.0444 213.791 77.0444C209.308 77.0444 205.323 76.2142 201.837 74.5539C198.383 72.8603 195.478 70.5026 193.12 67.4808C190.762 64.4258 188.969 60.8561 187.74 56.7717C186.512 52.654 185.898 48.1877 185.898 43.3727C185.898 37.0967 186.96 31.4847 189.085 26.5369C191.244 21.5559 194.365 17.6375 198.45 14.7817C202.567 11.8927 207.598 10.4482 213.542 10.4482C218.424 10.4482 222.94 11.4943 227.09 13.5863C231.241 15.6783 234.462 18.7333 236.754 22.7513C235.957 23.6147 234.911 24.5943 233.616 25.6901C232.321 26.7528 230.992 27.7822 229.631 28.7784C228.303 29.7414 227.157 30.5217 226.194 31.1194C226.028 30.721 225.663 30.0734 225.098 29.1768C224.567 28.2471 223.803 27.3007 222.807 26.3377C221.844 25.3415 220.599 24.4947 219.071 23.7974C217.577 23.1 215.784 22.7513 213.692 22.7513C211.898 22.7513 210.221 23.183 208.661 24.0464C207.133 24.9098 205.788 26.1882 204.626 27.8818C203.497 29.5753 202.601 31.6507 201.936 34.1081C201.305 36.5321 200.99 39.3215 200.99 42.4761C200.99 45.2987 201.272 47.9553 201.837 50.4458C202.401 52.9363 203.215 55.1279 204.277 57.0207C205.373 58.9135 206.702 60.3912 208.262 61.4538C209.823 62.4832 211.583 62.9979 213.542 62.9979C215.667 62.9979 217.627 62.5828 219.42 61.7527C221.213 60.9225 222.84 59.8765 224.301 58.6146C225.762 57.3196 227.057 55.9913 228.186 54.6298C229.249 55.3272 230.428 56.2569 231.723 57.4192C233.018 58.5482 234.23 59.7437 235.359 61.0055C236.521 62.2342 237.418 63.3632 238.049 64.3926ZM246.901 76.3968C246.768 74.9357 246.602 72.7441 246.403 69.8219C246.204 66.8665 246.004 63.4628 245.805 59.6108C245.639 55.7588 245.49 51.7076 245.357 47.4572C245.224 43.1735 245.108 38.9728 245.008 34.8552C244.942 30.7044 244.908 26.8856 244.908 23.3989C244.908 21.1408 244.925 19.0986 244.958 17.2722C245.025 15.4127 245.108 13.8685 245.207 12.6399C245.506 12.6067 246.22 12.5569 247.349 12.4905C248.478 12.424 249.79 12.3576 251.284 12.2912C252.778 12.2248 254.223 12.175 255.618 12.1418C257.046 12.0754 258.191 12.0422 259.055 12.0422C258.988 13.8353 258.938 15.8609 258.905 18.119C258.905 20.3771 258.905 22.5355 258.905 24.5943C258.905 27.2509 258.938 29.924 259.005 32.6137C259.071 35.2703 259.138 37.0967 259.204 38.0929C259.935 38.0264 260.815 37.96 261.844 37.8936C262.907 37.794 264.036 37.7276 265.231 37.6944C266.426 37.628 267.605 37.5782 268.768 37.5449C269.963 37.4785 271.059 37.4287 272.055 37.3955C273.051 37.3291 273.881 37.2959 274.546 37.2959C274.579 36.1337 274.629 34.4899 274.695 32.3647C274.761 30.2395 274.828 27.915 274.894 25.3913C274.961 22.8344 275.044 20.3273 275.143 17.87C275.243 15.4127 275.342 13.304 275.442 11.5441C276.106 11.4777 276.903 11.4444 277.833 11.4444C278.763 11.4444 279.676 11.4444 280.573 11.4444C282.399 11.4444 284.159 11.4777 285.852 11.5441C287.579 11.5773 288.874 11.6603 289.738 11.7931C289.572 12.8557 289.406 14.4331 289.24 16.5251C289.073 18.6171 288.907 21.0578 288.741 23.8472C288.609 26.6365 288.476 29.6251 288.343 32.813C288.21 36.0008 288.077 39.2551 287.944 42.5758C287.845 45.8632 287.745 49.0843 287.646 52.2389C287.546 55.4932 287.463 58.6478 287.397 61.7029C287.33 64.7579 287.28 67.5306 287.247 70.0211C287.214 72.5117 287.197 74.5373 287.197 76.098C286.533 76.1312 285.487 76.181 284.059 76.2474C282.665 76.3138 281.12 76.3636 279.427 76.3968C277.767 76.43 276.123 76.4466 274.496 76.4466C274.496 74.2218 274.479 71.9139 274.446 69.523C274.446 67.1322 274.446 64.7579 274.446 62.4002C274.446 60.0425 274.446 57.7845 274.446 55.626C274.446 53.4344 274.446 51.442 274.446 49.6488C273.749 49.682 272.902 49.7152 271.906 49.7484C270.909 49.7484 269.83 49.765 268.668 49.7982C267.539 49.8314 266.41 49.8646 265.281 49.8979C264.152 49.8979 263.089 49.9145 262.093 49.9477C261.13 49.9477 260.35 49.9477 259.752 49.9477C259.852 51.9401 259.951 54.2811 260.051 56.9709C260.184 59.6274 260.3 62.284 260.399 64.9405C260.532 67.5971 260.648 69.9049 260.748 71.8641C260.848 73.8233 260.898 75.1184 260.898 75.7493C260.233 75.8489 259.287 75.9319 258.058 75.9984C256.83 76.0648 255.501 76.1312 254.074 76.1976C252.646 76.264 251.284 76.3138 249.989 76.347C248.727 76.3802 247.698 76.3968 246.901 76.3968ZM316.822 49.2005C315.992 48.0715 315.045 46.6436 313.983 44.9168C312.953 43.1569 311.841 41.2309 310.645 39.1389C309.45 37.0468 308.255 34.8552 307.059 32.5639C305.864 30.2727 304.685 27.998 303.523 25.7399C302.36 23.4487 301.281 21.257 300.285 19.165C299.322 17.0398 298.475 15.1304 297.745 13.4369C300.434 12.4407 303.008 11.7433 305.465 11.3448C307.956 10.9131 310.031 10.6807 311.691 10.6475C311.957 11.2784 312.389 12.341 312.986 13.8353C313.584 15.3296 314.282 17.0398 315.078 18.9658C315.909 20.8918 316.772 22.8842 317.669 24.943C318.565 26.9686 319.429 28.8946 320.259 30.721C321.089 32.5141 321.803 34.0084 322.401 35.2039C322.766 34.4069 323.33 33.2447 324.094 31.7172C324.858 30.1564 325.705 28.4131 326.634 26.4871C327.597 24.5611 328.577 22.6185 329.573 20.6593C330.603 18.7001 331.532 16.907 332.363 15.2798C333.226 13.6195 333.923 12.3244 334.455 11.3946C336.082 11.5607 337.709 11.9093 339.336 12.4407C340.996 12.972 342.54 13.5697 343.968 14.2338C345.429 14.8979 346.675 15.5621 347.704 16.2262C346.243 18.1854 344.533 20.7755 342.574 23.9966C340.614 27.1844 338.489 30.8372 336.198 34.9548C333.94 39.0725 331.615 43.5056 329.225 48.2541C329.291 49.8813 329.341 51.7242 329.374 53.783C329.44 55.8087 329.49 57.7845 329.523 59.7105C329.557 61.6032 329.573 63.164 329.573 64.3926C329.573 65.8537 329.557 67.431 329.523 69.1246C329.523 70.7849 329.523 72.2626 329.523 73.5577C329.523 74.8195 329.523 75.6497 329.523 76.0482C329.125 76.181 328.361 76.2972 327.232 76.3968C326.136 76.4965 324.924 76.5463 323.596 76.5463C322.168 76.5463 320.74 76.4965 319.312 76.3968C317.918 76.264 316.722 76.1146 315.726 75.9485C315.726 74.3878 315.759 72.4618 315.826 70.1706C315.892 67.8793 315.975 65.4552 316.075 62.8983C316.174 60.3414 316.291 57.8675 316.423 55.4766C316.556 53.0857 316.689 50.9937 316.822 49.2005Z" fill="#F1E3D3"/>
<path d="M341.286 160.091C341.286 157.302 341.27 153.881 341.237 149.83C341.203 145.779 341.153 141.412 341.087 136.73C340.987 132.048 340.888 127.316 340.788 122.534C340.689 117.752 340.572 113.22 340.44 108.936C340.307 104.652 340.157 100.9 339.991 97.679C338.563 97.5462 336.903 97.4466 335.01 97.3801C333.084 97.2805 331.191 97.2141 329.332 97.1809C327.472 97.1145 325.895 97.0813 324.6 97.0813C323.305 97.0481 322.574 97.0315 322.408 97.0315C322.342 97.1643 322.093 98.0111 321.661 99.5718C321.196 101.133 320.599 103.158 319.868 105.649C319.137 108.139 318.357 110.879 317.527 113.867C316.664 116.856 315.8 119.911 314.937 123.032C314.073 126.121 313.276 129.043 312.546 131.799C311.782 134.555 311.151 136.929 310.653 138.922C310.155 140.914 309.856 142.276 309.757 143.006L311.35 143.205C310.985 142.209 310.454 140.582 309.757 138.324C309.026 136.033 308.196 133.393 307.266 130.404C306.336 127.382 305.39 124.211 304.427 120.891C303.431 117.57 302.484 114.349 301.588 111.227C300.658 108.073 299.861 105.267 299.197 102.809C298.533 100.319 298.068 98.4262 297.802 97.1311C296.54 97.1311 294.946 97.1643 293.02 97.2307C291.094 97.2971 289.152 97.3968 287.193 97.5296C285.233 97.6292 283.623 97.7952 282.361 98.0277C281.697 101.083 281.232 105.051 280.966 109.932C280.701 114.78 280.568 119.928 280.568 125.373C280.568 129.591 280.618 133.874 280.717 138.224C280.817 142.541 280.966 146.593 281.165 150.378C281.332 154.13 281.514 157.269 281.713 159.792C283.141 159.792 284.702 159.776 286.396 159.742C288.056 159.676 289.65 159.593 291.177 159.493C292.672 159.361 293.867 159.278 294.764 159.244C294.564 156.687 294.398 153.583 294.266 149.93C294.1 146.244 293.967 142.458 293.867 138.573C293.801 136.182 293.751 133.742 293.718 131.251C293.684 128.761 293.651 126.486 293.618 124.427C293.585 122.335 293.568 120.741 293.568 119.645C293.933 121.04 294.481 122.883 295.212 125.174C295.909 127.465 296.706 129.989 297.603 132.745C298.499 135.501 299.446 138.291 300.442 141.113C301.405 143.936 302.335 146.609 303.231 149.133C304.095 151.657 304.875 153.832 305.572 155.658C306.237 157.451 306.735 158.68 307.067 159.344C307.498 159.377 308.146 159.41 309.009 159.444C309.84 159.444 310.487 159.444 310.952 159.444C311.782 159.444 312.629 159.41 313.492 159.344C314.356 159.244 315.302 159.145 316.331 159.045C316.398 158.647 316.614 157.733 316.979 156.306C317.344 154.878 317.809 153.084 318.374 150.926C318.938 148.768 319.552 146.393 320.217 143.803C320.881 141.213 321.562 138.573 322.259 135.883C322.956 133.16 323.654 130.537 324.351 128.013C325.015 125.49 325.629 123.215 326.194 121.189C326.725 119.131 327.173 117.503 327.539 116.308C327.539 119.496 327.539 122.966 327.539 126.718C327.506 130.437 327.489 134.14 327.489 137.826C327.489 141.512 327.489 144.916 327.489 148.037C327.456 151.158 327.439 153.782 327.439 155.907C327.439 157.999 327.439 159.311 327.439 159.842C328.469 159.875 329.78 159.908 331.374 159.942C332.968 159.975 334.628 160.008 336.355 160.041C338.082 160.074 339.726 160.091 341.286 160.091ZM260.237 160.639C261.001 160.639 262.031 160.622 263.326 160.589C264.588 160.556 265.949 160.506 267.41 160.44C268.871 160.373 270.283 160.307 271.644 160.241C273.005 160.207 274.134 160.157 275.031 160.091C274.699 158.132 274.218 155.575 273.587 152.42C272.922 149.266 272.175 145.729 271.345 141.811C270.482 137.892 269.569 133.791 268.606 129.508C267.609 125.224 266.613 120.974 265.617 116.756C264.588 112.539 263.591 108.554 262.628 104.802C261.665 101.016 260.802 97.7122 260.038 94.8896C257.116 94.4912 254.078 94.1425 250.923 93.8436C247.768 93.5448 244.664 93.3953 241.608 93.3953C239.981 93.3953 238.354 93.4451 236.727 93.5448C235.1 93.6444 233.506 93.7938 231.945 93.9931C231.281 96.9153 230.634 100.319 230.003 104.204C229.339 108.056 228.674 112.589 228.01 117.802C227.346 123.016 226.682 129.076 226.018 135.983C225.354 142.857 224.69 150.777 224.026 159.742C225.022 159.908 226.416 160.058 228.21 160.191C229.97 160.324 231.812 160.423 233.738 160.49C235.664 160.589 237.375 160.639 238.869 160.639C238.935 159.676 239.002 158.53 239.068 157.202C239.135 155.841 239.201 154.38 239.267 152.819C239.334 151.258 239.4 149.697 239.467 148.137C239.533 146.543 239.599 145.032 239.666 143.604C239.732 142.143 239.782 140.881 239.815 139.818C240.878 139.818 242.073 139.852 243.402 139.918C244.73 139.984 246.091 140.067 247.486 140.167C248.881 140.233 250.209 140.333 251.471 140.466C252.7 140.566 253.779 140.665 254.709 140.765C255.638 140.864 256.286 140.947 256.651 141.014C257.182 143.471 257.697 145.945 258.195 148.436C258.66 150.893 259.075 153.201 259.441 155.359C259.773 157.484 260.038 159.244 260.237 160.639ZM254.808 128.96C253.912 128.794 252.567 128.628 250.774 128.462C248.947 128.262 247.054 128.096 245.095 127.964C243.103 127.831 241.459 127.748 240.164 127.715C240.23 126.884 240.33 125.456 240.463 123.431C240.562 121.372 240.695 119.131 240.861 116.706C240.994 114.249 241.144 111.975 241.31 109.882C241.442 107.79 241.592 106.28 241.758 105.35C242.356 105.35 243.252 105.383 244.448 105.449C245.61 105.516 246.739 105.599 247.835 105.698C248.931 105.798 249.711 105.864 250.176 105.898C250.375 106.827 250.657 108.156 251.023 109.882C251.388 111.609 251.786 113.568 252.218 115.76C252.65 117.952 253.098 120.193 253.563 122.484C254.028 124.743 254.443 126.901 254.808 128.96ZM220.435 106.545C220.568 105.881 220.701 104.968 220.834 103.806C220.933 102.61 221.033 101.365 221.133 100.07C221.199 98.7748 221.249 97.6126 221.282 96.5832C221.315 95.5206 221.332 94.79 221.332 94.3915C217.58 94.1259 213.312 93.8934 208.531 93.6942C203.716 93.495 198.851 93.3953 193.936 93.3953C190.25 93.3953 186.681 93.4784 183.227 93.6444C179.74 93.7772 176.553 94.0429 173.664 94.4414C173.63 96.799 173.697 99.0405 173.863 101.166C174.029 103.258 174.228 104.852 174.461 105.947C175.125 105.947 176.088 105.947 177.35 105.947C178.611 105.914 180.023 105.881 181.583 105.848C183.144 105.815 184.688 105.798 186.216 105.798C187.743 105.765 189.072 105.748 190.201 105.748C190.167 106.977 190.118 108.82 190.051 111.277C189.952 113.701 189.835 116.507 189.702 119.695C189.57 122.883 189.437 126.22 189.304 129.707C189.138 133.194 188.989 136.631 188.856 140.018C188.723 143.405 188.607 146.51 188.507 149.332C188.374 152.155 188.275 154.479 188.208 156.306C188.109 158.132 188.059 159.244 188.059 159.643C189.221 159.809 190.748 159.958 192.641 160.091C194.501 160.257 196.36 160.373 198.22 160.44C200.08 160.539 201.59 160.589 202.753 160.589C202.852 158.63 202.952 156.206 203.052 153.317C203.151 150.428 203.234 147.29 203.301 143.903C203.367 140.483 203.433 136.996 203.5 133.443C203.566 129.856 203.616 126.37 203.649 122.983C203.682 119.595 203.699 116.491 203.699 113.668C203.699 112.141 203.699 110.729 203.699 109.434C203.699 108.139 203.682 106.977 203.649 105.947C204.845 106.014 206.173 106.08 207.634 106.147C209.062 106.18 210.54 106.23 212.067 106.296C213.595 106.363 215.072 106.412 216.5 106.446C217.928 106.479 219.24 106.512 220.435 106.545ZM119.655 147.788C121.316 149.98 123.341 152.038 125.732 153.964C128.123 155.857 130.846 157.418 133.901 158.647C136.956 159.842 140.293 160.44 143.913 160.44C148.396 160.44 152.381 159.61 155.867 157.949C159.321 156.256 162.226 153.898 164.584 150.876C166.942 147.821 168.735 144.251 169.964 140.167C171.192 136.049 171.807 131.583 171.807 126.768C171.807 120.492 170.744 114.88 168.619 109.932C166.46 104.951 163.339 101.033 159.254 98.1771C155.137 95.2881 150.106 93.8436 144.162 93.8436C139.281 93.8436 134.764 94.8896 130.614 96.9817C126.463 99.0737 123.242 102.129 120.95 106.147C121.747 107.01 122.793 107.99 124.089 109.086C125.384 110.148 126.712 111.178 128.073 112.174C129.402 113.137 130.547 113.917 131.51 114.515C131.676 114.116 132.042 113.469 132.606 112.572C133.137 111.642 133.901 110.696 134.897 109.733C135.86 108.737 137.106 107.89 138.633 107.193C140.127 106.495 141.921 106.147 144.013 106.147C145.806 106.147 147.483 106.578 149.043 107.442C150.571 108.305 151.916 109.584 153.078 111.277C154.207 112.971 155.104 115.046 155.768 117.503C156.399 119.928 156.714 122.717 156.714 125.872C156.714 128.694 156.432 131.351 155.867 133.841C155.303 136.332 154.489 138.523 153.427 140.416C152.331 142.309 151.003 143.787 149.442 144.849C147.881 145.879 146.121 146.393 144.162 146.393C142.037 146.393 140.078 145.978 138.284 145.148C136.491 144.318 134.864 143.272 133.403 142.01C131.942 140.715 130.647 139.387 129.518 138.025C128.455 138.723 127.276 139.652 125.981 140.815C124.686 141.944 123.474 143.139 122.345 144.401C121.183 145.63 120.286 146.759 119.655 147.788ZM110.803 159.792C110.936 158.331 111.102 156.139 111.301 153.217C111.501 150.262 111.7 146.858 111.899 143.006C112.065 139.154 112.215 135.103 112.347 130.853C112.48 126.569 112.596 122.368 112.696 118.251C112.762 114.1 112.796 110.281 112.796 106.794C112.796 104.536 112.779 102.494 112.746 100.668C112.679 98.808 112.596 97.2639 112.497 96.0353C112.198 96.0021 111.484 95.9523 110.355 95.8858C109.226 95.8194 107.914 95.753 106.42 95.6866C104.926 95.6202 103.481 95.5704 102.086 95.5372C100.659 95.4708 99.5129 95.4376 98.6496 95.4376C98.716 97.2307 98.7658 99.2563 98.799 101.514C98.799 103.772 98.799 105.931 98.799 107.99C98.799 110.646 98.7658 113.319 98.6994 116.009C98.633 118.666 98.5665 120.492 98.5001 121.488C97.7696 121.422 96.8896 121.355 95.8602 121.289C94.7976 121.189 93.6685 121.123 92.4731 121.09C91.2777 121.023 90.0988 120.974 88.9366 120.94C87.7411 120.874 86.6453 120.824 85.6491 120.791C84.6529 120.724 83.8227 120.691 83.1586 120.691C83.1254 119.529 83.0756 117.885 83.0092 115.76C82.9428 113.635 82.8764 111.31 82.8099 108.787C82.7435 106.23 82.6605 103.723 82.5609 101.265C82.4613 98.808 82.3617 96.6994 82.262 94.9395C81.5979 94.873 80.8009 94.8398 79.8711 94.8398C78.9414 94.8398 78.0282 94.8398 77.1316 94.8398C75.3052 94.8398 73.5453 94.873 71.8517 94.9395C70.125 94.9727 68.8299 95.0557 67.9665 95.1885C68.1326 96.2511 68.2986 97.8284 68.4646 99.9205C68.6307 102.012 68.7967 104.453 68.9627 107.243C69.0956 110.032 69.2284 113.021 69.3612 116.208C69.494 119.396 69.6269 122.65 69.7597 125.971C69.8593 129.259 69.9589 132.48 70.0586 135.634C70.1582 138.889 70.2412 142.043 70.3076 145.098C70.374 148.153 70.4238 150.926 70.457 153.417C70.4902 155.907 70.5068 157.933 70.5068 159.493C71.171 159.527 72.217 159.576 73.6449 159.643C75.0396 159.709 76.5837 159.759 78.2772 159.792C79.9376 159.825 81.5813 159.842 83.2084 159.842C83.2084 157.617 83.225 155.309 83.2582 152.918C83.2582 150.528 83.2582 148.153 83.2582 145.796C83.2582 143.438 83.2582 141.18 83.2582 139.021C83.2582 136.83 83.2582 134.837 83.2582 133.044C83.9556 133.077 84.8023 133.111 85.7985 133.144C86.7948 133.144 87.874 133.16 89.0362 133.194C90.1652 133.227 91.2943 133.26 92.4233 133.293C93.5523 133.293 94.6149 133.31 95.6111 133.343C96.5741 133.343 97.3545 133.343 97.9522 133.343C97.8526 135.335 97.753 137.677 97.6534 140.366C97.5205 143.023 97.4043 145.679 97.3047 148.336C97.1719 150.992 97.0556 153.3 96.956 155.26C96.8564 157.219 96.8066 158.514 96.8066 159.145C97.4707 159.244 98.4171 159.327 99.6458 159.394C100.874 159.46 102.203 159.527 103.631 159.593C105.058 159.659 106.42 159.709 107.715 159.742C108.977 159.776 110.006 159.792 110.803 159.792ZM40.8823 132.596C41.7124 131.467 42.6588 130.039 43.7215 128.312C44.7509 126.552 45.8633 124.626 47.0587 122.534C48.2542 120.442 49.4496 118.251 50.6451 115.959C51.8405 113.668 53.0193 111.393 54.1816 109.135C55.3438 106.844 56.423 104.652 57.4192 102.56C58.3822 100.435 59.229 98.5258 59.9596 96.8322C57.2698 95.836 54.6963 95.1387 52.239 94.7402C49.7485 94.3085 47.6731 94.0761 46.0127 94.0429C45.7471 94.6738 45.3154 95.7364 44.7177 97.2307C44.1199 98.725 43.4226 100.435 42.6256 102.361C41.7955 104.287 40.9321 106.28 40.0355 108.338C39.1389 110.364 38.2756 112.29 37.4454 114.116C36.6152 115.91 35.9013 117.404 35.3035 118.599C34.9383 117.802 34.3738 116.64 33.61 115.113C32.8462 113.552 31.9995 111.808 31.0697 109.882C30.1067 107.956 29.1271 106.014 28.1309 104.055C27.1015 102.096 26.1717 100.302 25.3415 98.6752C24.4781 97.0149 23.7808 95.7198 23.2495 94.79C21.6224 94.9561 19.9952 95.3047 18.3681 95.836C16.7078 96.3673 15.1637 96.9651 13.7358 97.6292C12.2747 98.2933 11.0294 98.9575 10 99.6216C11.4611 101.581 13.1713 104.171 15.1304 107.392C17.0896 110.58 19.2149 114.233 21.5061 118.35C23.7642 122.468 26.0887 126.901 28.4796 131.65C28.4131 133.277 28.3633 135.12 28.3301 137.178C28.2637 139.204 28.2139 141.18 28.1807 143.106C28.1475 144.999 28.1309 146.559 28.1309 147.788C28.1309 149.249 28.1475 150.826 28.1807 152.52C28.1807 154.18 28.1807 155.658 28.1807 156.953C28.1807 158.215 28.1807 159.045 28.1807 159.444C28.5792 159.576 29.3429 159.693 30.472 159.792C31.5678 159.892 32.7798 159.942 34.1081 159.942C35.536 159.942 36.9639 159.892 38.3918 159.792C39.7865 159.659 40.9819 159.51 41.9781 159.344C41.9781 157.783 41.9449 155.857 41.8785 153.566C41.8121 151.275 41.7291 148.851 41.6294 146.294C41.5298 143.737 41.4136 141.263 41.2808 138.872C41.1479 136.481 41.0151 134.389 40.8823 132.596Z" fill="#F1E3D3"/>
</g>
<path d="M18.4178 75.6957C18.4178 72.9063 18.4344 69.486 18.4676 65.4348C18.5008 61.3836 18.5506 57.0169 18.6171 52.3348C18.7167 47.6526 18.8163 42.9206 18.9159 38.1389C19.0155 33.3571 19.1318 28.8244 19.2646 24.5407C19.3974 20.257 19.5468 16.5047 19.7129 13.2836C21.1408 13.1508 22.8011 13.0512 24.6939 12.9848C26.6199 12.8851 28.5127 12.8187 30.3722 12.7855C32.2318 12.7191 33.8091 12.6859 35.1042 12.6859C36.3993 12.6527 37.1298 12.6361 37.2959 12.6361C37.3623 12.7689 37.6113 13.6157 38.043 15.1764C38.5079 16.7371 39.1056 18.7627 39.8362 21.2532C40.5667 23.7437 41.3471 26.4833 42.1772 29.4719C43.0406 32.4605 43.904 35.5155 44.7674 38.637C45.6307 41.7252 46.4277 44.6474 47.1583 47.4036C47.922 50.1597 48.5529 52.534 49.051 54.5264C49.5491 56.5188 49.848 57.8803 49.9476 58.6108L48.3537 58.8101C48.719 57.8139 49.2503 56.1867 49.9476 53.9287C50.6782 51.6374 51.5083 48.9975 52.4381 46.0089C53.3679 42.9871 54.3143 39.8158 55.2773 36.4951C56.2735 33.1745 57.2199 29.9534 58.1165 26.832C59.0463 23.6773 59.8432 20.8714 60.5074 18.4141C61.1715 15.9236 61.6364 14.0308 61.9021 12.7357C63.1639 12.7357 64.7578 12.7689 66.6838 12.8353C68.6098 12.9017 70.5524 13.0014 72.5116 13.1342C74.4708 13.2338 76.0813 13.3998 77.3432 13.6323C78.0073 16.6873 78.4722 20.6555 78.7379 25.5369C79.0035 30.3851 79.1364 35.5321 79.1364 40.978C79.1364 45.1953 79.0865 49.479 78.9869 53.8291C78.8873 58.1459 78.7379 62.1972 78.5386 65.9827C78.3726 69.7351 78.19 72.8731 77.9907 75.3968C76.5628 75.3968 75.0021 75.3802 73.3086 75.347C71.6482 75.2806 70.0543 75.1976 68.5268 75.098C67.0325 74.9652 65.8371 74.8821 64.9405 74.8489C65.1397 72.292 65.3057 69.1872 65.4386 65.5344C65.6046 61.8485 65.7374 58.0629 65.8371 54.1777C65.9035 51.7868 65.9533 49.3461 65.9865 46.8556C66.0197 44.3651 66.0529 42.0905 66.0861 40.0317C66.1193 37.9396 66.1359 36.3457 66.1359 35.2499C65.7706 36.6446 65.2227 38.4875 64.4922 40.7788C63.7948 43.0701 62.9979 45.5938 62.1013 48.3499C61.2047 51.1061 60.2583 53.8955 59.2621 56.718C58.2991 59.5406 57.3693 62.2138 56.4728 64.7375C55.6094 67.2612 54.829 69.4362 54.1317 71.2626C53.4675 73.0558 52.9694 74.2844 52.6374 74.9485C52.2057 74.9818 51.5582 75.015 50.6948 75.0482C49.8646 75.0482 49.2171 75.0482 48.7522 75.0482C47.922 75.0482 47.0752 75.015 46.2119 74.9485C45.3485 74.8489 44.4021 74.7493 43.3727 74.6497C43.3063 74.2512 43.0904 73.338 42.7252 71.9101C42.3599 70.4822 41.895 68.6891 41.3305 66.5306C40.766 64.3722 40.1516 61.9979 39.4875 59.4078C38.8234 56.8177 38.1426 54.1777 37.4453 51.488C36.7479 48.765 36.0506 46.1417 35.3533 43.618C34.6891 41.0943 34.0748 38.8196 33.5103 36.794C32.979 34.7352 32.5307 33.108 32.1654 31.9126C32.1654 35.1005 32.1654 38.5706 32.1654 42.3229C32.1986 46.0421 32.2152 49.7446 32.2152 53.4306C32.2152 57.1165 32.2152 60.5202 32.2152 63.6417C32.2484 66.7631 32.265 69.3864 32.265 71.5117C32.265 73.6037 32.265 74.9153 32.265 75.4466C31.2356 75.4799 29.924 75.5131 28.33 75.5463C26.7361 75.5795 25.0758 75.6127 23.349 75.6459C21.6223 75.6791 19.9785 75.6957 18.4178 75.6957ZM99.4667 76.2436C98.7029 76.2436 97.6735 76.227 96.3784 76.1938C95.1166 76.1606 93.7551 76.1108 92.294 76.0444C90.8329 75.978 89.4216 75.9115 88.0601 75.8451C86.6987 75.8119 85.5696 75.7621 84.6731 75.6957C85.0051 73.7365 85.4866 71.1796 86.1175 68.0249C86.7817 64.8703 87.5288 61.3338 88.359 57.4154C89.2224 53.497 90.1356 49.396 91.0986 45.1123C92.0948 40.8286 93.091 36.5782 94.0872 32.3609C95.1166 28.1436 96.1128 24.1588 97.0758 20.4065C98.0388 16.6209 98.9021 13.3168 99.6659 10.4943C102.588 10.0958 105.627 9.7471 108.781 9.44824C111.936 9.14938 115.041 8.99995 118.096 8.99995C119.723 8.99995 121.35 9.04976 122.977 9.14938C124.604 9.249 126.198 9.39843 127.759 9.59767C128.423 12.5199 129.07 15.9236 129.701 19.8087C130.366 23.6607 131.03 28.1934 131.694 33.4069C132.358 38.6204 133.022 44.6806 133.686 51.5876C134.35 58.4614 135.014 66.3812 135.679 75.347C134.682 75.5131 133.288 75.6625 131.495 75.7953C129.735 75.9281 127.892 76.0278 125.966 76.0942C124.04 76.1938 122.33 76.2436 120.835 76.2436C120.769 75.2806 120.702 74.135 120.636 72.8067C120.57 71.4452 120.503 69.9841 120.437 68.4234C120.37 66.8627 120.304 65.302 120.237 63.7413C120.171 62.1473 120.105 60.6364 120.038 59.2086C119.972 57.7475 119.922 56.4856 119.889 55.423C118.826 55.423 117.631 55.4562 116.302 55.5226C114.974 55.589 113.613 55.672 112.218 55.7717C110.823 55.8381 109.495 55.9377 108.233 56.0705C107.005 56.1701 105.925 56.2698 104.996 56.3694C104.066 56.469 103.418 56.552 103.053 56.6184C102.522 59.0757 102.007 61.5496 101.509 64.0401C101.044 66.4974 100.629 68.8053 100.264 70.9637C99.9316 73.089 99.6659 74.8489 99.4667 76.2436ZM104.896 44.5644C105.793 44.3983 107.137 44.2323 108.931 44.0663C110.757 43.867 112.65 43.701 114.609 43.5682C116.601 43.4353 118.245 43.3523 119.54 43.3191C119.474 42.489 119.374 41.0611 119.241 39.0355C119.142 36.9766 119.009 34.7352 118.843 32.3111C118.71 29.8538 118.561 27.5791 118.395 25.4871C118.262 23.3951 118.112 21.8842 117.946 20.9544C117.348 20.9544 116.452 20.9876 115.256 21.054C114.094 21.1204 112.965 21.2034 111.869 21.3031C110.774 21.4027 109.993 21.4691 109.528 21.5023C109.329 22.4321 109.047 23.7604 108.682 25.4871C108.316 27.2139 107.918 29.1731 107.486 31.3647C107.054 33.5563 106.606 35.7978 106.141 38.0891C105.676 40.3471 105.261 42.5056 104.896 44.5644ZM139.269 22.1498C139.136 21.4857 139.003 20.5725 138.87 19.4103C138.771 18.2148 138.671 16.9696 138.571 15.6745C138.505 14.3794 138.455 13.2172 138.422 12.1878C138.389 11.1252 138.372 10.3946 138.372 9.99615C142.125 9.7305 146.392 9.49805 151.173 9.29881C155.988 9.09957 160.853 8.99995 165.768 8.99995C169.454 8.99995 173.023 9.08297 176.477 9.249C179.964 9.38183 183.152 9.64748 186.041 10.046C186.074 12.4036 186.007 14.6451 185.841 16.7703C185.675 18.8624 185.476 20.4563 185.244 21.5521C184.579 21.5521 183.616 21.5521 182.355 21.5521C181.093 21.5189 179.681 21.4857 178.121 21.4525C176.56 21.4193 175.016 21.4027 173.488 21.4027C171.961 21.3695 170.633 21.3529 169.504 21.3529C169.537 22.5815 169.587 24.4245 169.653 26.8818C169.753 29.3059 169.869 32.1118 170.002 35.2997C170.135 38.4875 170.267 41.8248 170.4 45.3115C170.566 48.7982 170.716 52.2351 170.848 55.6222C170.981 59.0093 171.098 62.1141 171.197 64.9367C171.33 67.7593 171.43 70.0838 171.496 71.9101C171.596 73.7365 171.645 74.8489 171.645 75.2474C170.483 75.4134 168.956 75.5629 167.063 75.6957C165.203 75.8617 163.344 75.978 161.484 76.0444C159.625 76.144 158.114 76.1938 156.951 76.1938C156.852 74.2346 156.752 71.8105 156.653 68.9215C156.553 66.0325 156.47 62.8945 156.404 59.5074C156.337 56.0871 156.271 52.6004 156.204 49.0473C156.138 45.461 156.088 41.9742 156.055 38.5872C156.022 35.2001 156.005 32.0952 156.005 29.2727C156.005 27.7452 156.005 26.3339 156.005 25.0388C156.005 23.7437 156.022 22.5815 156.055 21.5521C154.859 21.6185 153.531 21.6849 152.07 21.7513C150.642 21.7845 149.164 21.8344 147.637 21.9008C146.109 21.9672 144.632 22.017 143.204 22.0502C141.776 22.0834 140.464 22.1166 139.269 22.1498ZM240.049 63.3926C238.388 65.5842 236.363 67.6431 233.972 69.5691C231.581 71.4618 228.858 73.0226 225.803 74.2512C222.748 75.4466 219.411 76.0444 215.791 76.0444C211.308 76.0444 207.323 75.2142 203.837 73.5539C200.383 71.8603 197.478 69.5026 195.12 66.4808C192.762 63.4258 190.969 59.8561 189.74 55.7717C188.512 51.654 187.898 47.1877 187.898 42.3727C187.898 36.0967 188.96 30.4847 191.085 25.5369C193.244 20.5559 196.365 16.6375 200.45 13.7817C204.567 10.8927 209.598 9.44824 215.542 9.44824C220.424 9.44824 224.94 10.4943 229.09 12.5863C233.241 14.6783 236.462 17.7333 238.754 21.7513C237.957 22.6147 236.911 23.5943 235.616 24.6901C234.321 25.7528 232.992 26.7822 231.631 27.7784C230.303 28.7414 229.157 29.5217 228.194 30.1194C228.028 29.721 227.663 29.0734 227.098 28.1768C226.567 27.2471 225.803 26.3007 224.807 25.3377C223.844 24.3415 222.599 23.4947 221.071 22.7974C219.577 22.1 217.784 21.7513 215.692 21.7513C213.898 21.7513 212.221 22.183 210.661 23.0464C209.133 23.9098 207.788 25.1882 206.626 26.8818C205.497 28.5753 204.601 30.6507 203.936 33.1081C203.305 35.5321 202.99 38.3215 202.99 41.4761C202.99 44.2987 203.272 46.9553 203.837 49.4458C204.401 51.9363 205.215 54.1279 206.277 56.0207C207.373 57.9135 208.702 59.3912 210.262 60.4538C211.823 61.4832 213.583 61.9979 215.542 61.9979C217.667 61.9979 219.627 61.5828 221.42 60.7527C223.213 59.9225 224.84 58.8765 226.301 57.6146C227.762 56.3196 229.057 54.9913 230.186 53.6298C231.249 54.3272 232.428 55.2569 233.723 56.4192C235.018 57.5482 236.23 58.7437 237.359 60.0055C238.521 61.2342 239.418 62.3632 240.049 63.3926ZM248.901 75.3968C248.768 73.9357 248.602 71.7441 248.403 68.8219C248.204 65.8665 248.004 62.4628 247.805 58.6108C247.639 54.7588 247.49 50.7076 247.357 46.4572C247.224 42.1735 247.108 37.9728 247.008 33.8552C246.942 29.7044 246.908 25.8856 246.908 22.3989C246.908 20.1408 246.925 18.0986 246.958 16.2722C247.025 14.4127 247.108 12.8685 247.207 11.6399C247.506 11.6067 248.22 11.5569 249.349 11.4905C250.478 11.424 251.79 11.3576 253.284 11.2912C254.778 11.2248 256.223 11.175 257.618 11.1418C259.046 11.0754 260.191 11.0422 261.055 11.0422C260.988 12.8353 260.938 14.8609 260.905 17.119C260.905 19.3771 260.905 21.5355 260.905 23.5943C260.905 26.2509 260.938 28.924 261.005 31.6137C261.071 34.2703 261.138 36.0967 261.204 37.0929C261.935 37.0264 262.815 36.96 263.844 36.8936C264.907 36.794 266.036 36.7276 267.231 36.6944C268.426 36.628 269.605 36.5782 270.768 36.5449C271.963 36.4785 273.059 36.4287 274.055 36.3955C275.051 36.3291 275.881 36.2959 276.546 36.2959C276.579 35.1337 276.629 33.4899 276.695 31.3647C276.761 29.2395 276.828 26.915 276.894 24.3913C276.961 21.8344 277.044 19.3273 277.143 16.87C277.243 14.4127 277.342 12.304 277.442 10.5441C278.106 10.4777 278.903 10.4444 279.833 10.4444C280.763 10.4444 281.676 10.4444 282.573 10.4444C284.399 10.4444 286.159 10.4777 287.852 10.5441C289.579 10.5773 290.874 10.6603 291.738 10.7931C291.572 11.8557 291.406 13.4331 291.24 15.5251C291.073 17.6171 290.907 20.0578 290.741 22.8472C290.609 25.6365 290.476 28.6251 290.343 31.813C290.21 35.0008 290.077 38.2551 289.944 41.5758C289.845 44.8632 289.745 48.0843 289.646 51.2389C289.546 54.4932 289.463 57.6478 289.397 60.7029C289.33 63.7579 289.28 66.5306 289.247 69.0211C289.214 71.5117 289.197 73.5373 289.197 75.098C288.533 75.1312 287.487 75.181 286.059 75.2474C284.665 75.3138 283.12 75.3636 281.427 75.3968C279.767 75.43 278.123 75.4466 276.496 75.4466C276.496 73.2218 276.479 70.9139 276.446 68.523C276.446 66.1322 276.446 63.7579 276.446 61.4002C276.446 59.0425 276.446 56.7845 276.446 54.626C276.446 52.4344 276.446 50.442 276.446 48.6488C275.749 48.682 274.902 48.7152 273.906 48.7484C272.909 48.7484 271.83 48.765 270.668 48.7982C269.539 48.8314 268.41 48.8646 267.281 48.8979C266.152 48.8979 265.089 48.9145 264.093 48.9477C263.13 48.9477 262.35 48.9477 261.752 48.9477C261.852 50.9401 261.951 53.2811 262.051 55.9709C262.184 58.6274 262.3 61.284 262.399 63.9405C262.532 66.5971 262.648 68.9049 262.748 70.8641C262.848 72.8233 262.898 74.1184 262.898 74.7493C262.233 74.8489 261.287 74.9319 260.058 74.9984C258.83 75.0648 257.501 75.1312 256.074 75.1976C254.646 75.264 253.284 75.3138 251.989 75.347C250.727 75.3802 249.698 75.3968 248.901 75.3968ZM318.822 48.2005C317.992 47.0715 317.045 45.6436 315.983 43.9168C314.953 42.1569 313.841 40.2309 312.645 38.1389C311.45 36.0468 310.255 33.8552 309.059 31.5639C307.864 29.2727 306.685 26.998 305.523 24.7399C304.36 22.4487 303.281 20.257 302.285 18.165C301.322 16.0398 300.475 14.1304 299.745 12.4369C302.434 11.4407 305.008 10.7433 307.465 10.3448C309.956 9.91314 312.031 9.68069 313.691 9.64749C313.957 10.2784 314.389 11.341 314.986 12.8353C315.584 14.3296 316.282 16.0398 317.078 17.9658C317.909 19.8918 318.772 21.8842 319.669 23.943C320.565 25.9686 321.429 27.8946 322.259 29.721C323.089 31.5141 323.803 33.0084 324.401 34.2039C324.766 33.4069 325.33 32.2447 326.094 30.7172C326.858 29.1564 327.705 27.4131 328.634 25.4871C329.597 23.5611 330.577 21.6185 331.573 19.6593C332.603 17.7001 333.532 15.907 334.363 14.2798C335.226 12.6195 335.923 11.3244 336.455 10.3946C338.082 10.5607 339.709 10.9093 341.336 11.4407C342.996 11.972 344.54 12.5697 345.968 13.2338C347.429 13.8979 348.675 14.5621 349.704 15.2262C348.243 17.1854 346.533 19.7755 344.574 22.9966C342.614 26.1844 340.489 29.8372 338.198 33.9548C335.94 38.0725 333.615 42.5056 331.225 47.2541C331.291 48.8813 331.341 50.7242 331.374 52.783C331.44 54.8087 331.49 56.7845 331.523 58.7105C331.557 60.6032 331.573 62.164 331.573 63.3926C331.573 64.8537 331.557 66.431 331.523 68.1246C331.523 69.7849 331.523 71.2626 331.523 72.5577C331.523 73.8195 331.523 74.6497 331.523 75.0482C331.125 75.181 330.361 75.2972 329.232 75.3968C328.136 75.4965 326.924 75.5463 325.596 75.5463C324.168 75.5463 322.74 75.4965 321.312 75.3968C319.918 75.264 318.722 75.1146 317.726 74.9485C317.726 73.3878 317.759 71.4618 317.826 69.1706C317.892 66.8793 317.975 64.4552 318.075 61.8983C318.174 59.3414 318.291 56.8675 318.423 54.4766C318.556 52.0857 318.689 49.9937 318.822 48.2005Z" fill="#690B22"/>
<path d="M343.286 159.091C343.286 156.302 343.27 152.881 343.237 148.83C343.203 144.779 343.153 140.412 343.087 135.73C342.987 131.048 342.888 126.316 342.788 121.534C342.689 116.752 342.572 112.22 342.44 107.936C342.307 103.652 342.157 99.9001 341.991 96.679C340.563 96.5462 338.903 96.4466 337.01 96.3801C335.084 96.2805 333.191 96.2141 331.332 96.1809C329.472 96.1145 327.895 96.0813 326.6 96.0813C325.305 96.0481 324.574 96.0315 324.408 96.0315C324.342 96.1643 324.093 97.0111 323.661 98.5718C323.196 100.133 322.599 102.158 321.868 104.649C321.137 107.139 320.357 109.879 319.527 112.867C318.664 115.856 317.8 118.911 316.937 122.032C316.073 125.121 315.276 128.043 314.546 130.799C313.782 133.555 313.151 135.929 312.653 137.922C312.155 139.914 311.856 141.276 311.757 142.006L313.35 142.205C312.985 141.209 312.454 139.582 311.757 137.324C311.026 135.033 310.196 132.393 309.266 129.404C308.336 126.382 307.39 123.211 306.427 119.891C305.431 116.57 304.484 113.349 303.588 110.227C302.658 107.073 301.861 104.267 301.197 101.809C300.533 99.3189 300.068 97.4262 299.802 96.1311C298.54 96.1311 296.946 96.1643 295.02 96.2307C293.094 96.2971 291.152 96.3968 289.193 96.5296C287.233 96.6292 285.623 96.7952 284.361 97.0277C283.697 100.083 283.232 104.051 282.966 108.932C282.701 113.78 282.568 118.928 282.568 124.373C282.568 128.591 282.618 132.874 282.717 137.224C282.817 141.541 282.966 145.593 283.165 149.378C283.332 153.13 283.514 156.269 283.713 158.792C285.141 158.792 286.702 158.776 288.396 158.742C290.056 158.676 291.65 158.593 293.177 158.493C294.672 158.361 295.867 158.278 296.764 158.244C296.564 155.687 296.398 152.583 296.266 148.93C296.1 145.244 295.967 141.458 295.867 137.573C295.801 135.182 295.751 132.742 295.718 130.251C295.684 127.761 295.651 125.486 295.618 123.427C295.585 121.335 295.568 119.741 295.568 118.645C295.933 120.04 296.481 121.883 297.212 124.174C297.909 126.465 298.706 128.989 299.603 131.745C300.499 134.501 301.446 137.291 302.442 140.113C303.405 142.936 304.335 145.609 305.231 148.133C306.095 150.657 306.875 152.832 307.572 154.658C308.237 156.451 308.735 157.68 309.067 158.344C309.498 158.377 310.146 158.41 311.009 158.444C311.84 158.444 312.487 158.444 312.952 158.444C313.782 158.444 314.629 158.41 315.492 158.344C316.356 158.244 317.302 158.145 318.331 158.045C318.398 157.647 318.614 156.733 318.979 155.306C319.344 153.878 319.809 152.084 320.374 149.926C320.938 147.768 321.552 145.393 322.217 142.803C322.881 140.213 323.562 137.573 324.259 134.883C324.956 132.16 325.654 129.537 326.351 127.013C327.015 124.49 327.629 122.215 328.194 120.189C328.725 118.131 329.173 116.503 329.539 115.308C329.539 118.496 329.539 121.966 329.539 125.718C329.506 129.437 329.489 133.14 329.489 136.826C329.489 140.512 329.489 143.916 329.489 147.037C329.456 150.158 329.439 152.782 329.439 154.907C329.439 156.999 329.439 158.311 329.439 158.842C330.469 158.875 331.78 158.908 333.374 158.942C334.968 158.975 336.628 159.008 338.355 159.041C340.082 159.074 341.726 159.091 343.286 159.091ZM262.237 159.639C263.001 159.639 264.031 159.622 265.326 159.589C266.588 159.556 267.949 159.506 269.41 159.44C270.871 159.373 272.283 159.307 273.644 159.241C275.005 159.207 276.134 159.157 277.031 159.091C276.699 157.132 276.218 154.575 275.587 151.42C274.922 148.266 274.175 144.729 273.345 140.811C272.482 136.892 271.569 132.791 270.606 128.508C269.609 124.224 268.613 119.974 267.617 115.756C266.588 111.539 265.591 107.554 264.628 103.802C263.665 100.016 262.802 96.7122 262.038 93.8896C259.116 93.4912 256.078 93.1425 252.923 92.8436C249.768 92.5448 246.664 92.3953 243.608 92.3953C241.981 92.3953 240.354 92.4451 238.727 92.5448C237.1 92.6444 235.506 92.7938 233.945 92.9931C233.281 95.9153 232.634 99.3189 232.003 103.204C231.339 107.056 230.674 111.589 230.01 116.802C229.346 122.016 228.682 128.076 228.018 134.983C227.354 141.857 226.69 149.777 226.026 158.742C227.022 158.908 228.416 159.058 230.21 159.191C231.97 159.324 233.812 159.423 235.738 159.49C237.664 159.589 239.375 159.639 240.869 159.639C240.935 158.676 241.002 157.53 241.068 156.202C241.135 154.841 241.201 153.38 241.267 151.819C241.334 150.258 241.4 148.697 241.467 147.137C241.533 145.543 241.599 144.032 241.666 142.604C241.732 141.143 241.782 139.881 241.815 138.818C242.878 138.818 244.073 138.852 245.402 138.918C246.73 138.984 248.091 139.067 249.486 139.167C250.881 139.233 252.209 139.333 253.471 139.466C254.7 139.566 255.779 139.665 256.709 139.765C257.638 139.864 258.286 139.947 258.651 140.014C259.182 142.471 259.697 144.945 260.195 147.436C260.66 149.893 261.075 152.201 261.441 154.359C261.773 156.484 262.038 158.244 262.237 159.639ZM256.808 127.96C255.912 127.794 254.567 127.628 252.774 127.462C250.947 127.262 249.054 127.096 247.095 126.964C245.103 126.831 243.459 126.748 242.164 126.715C242.23 125.884 242.33 124.456 242.463 122.431C242.562 120.372 242.695 118.131 242.861 115.706C242.994 113.249 243.144 110.975 243.31 108.882C243.442 106.79 243.592 105.28 243.758 104.35C244.356 104.35 245.252 104.383 246.448 104.449C247.61 104.516 248.739 104.599 249.835 104.698C250.931 104.798 251.711 104.864 252.176 104.898C252.375 105.827 252.657 107.156 253.023 108.882C253.388 110.609 253.786 112.568 254.218 114.76C254.65 116.952 255.098 119.193 255.563 121.484C256.028 123.743 256.443 125.901 256.808 127.96ZM222.435 105.545C222.568 104.881 222.701 103.968 222.834 102.806C222.933 101.61 223.033 100.365 223.133 99.0699C223.199 97.7748 223.249 96.6126 223.282 95.5832C223.315 94.5206 223.332 93.79 223.332 93.3915C219.58 93.1259 215.312 92.8934 210.531 92.6942C205.716 92.495 200.851 92.3953 195.936 92.3953C192.25 92.3953 188.681 92.4784 185.227 92.6444C181.74 92.7772 178.553 93.0429 175.664 93.4414C175.63 95.799 175.697 98.0405 175.863 100.166C176.029 102.258 176.228 103.852 176.461 104.947C177.125 104.947 178.088 104.947 179.35 104.947C180.611 104.914 182.023 104.881 183.583 104.848C185.144 104.815 186.688 104.798 188.216 104.798C189.743 104.765 191.072 104.748 192.201 104.748C192.167 105.977 192.118 107.82 192.051 110.277C191.952 112.701 191.835 115.507 191.702 118.695C191.57 121.883 191.437 125.22 191.304 128.707C191.138 132.194 190.989 135.631 190.856 139.018C190.723 142.405 190.607 145.51 190.507 148.332C190.374 151.155 190.275 153.479 190.208 155.306C190.109 157.132 190.059 158.244 190.059 158.643C191.221 158.809 192.748 158.958 194.641 159.091C196.501 159.257 198.36 159.373 200.22 159.44C202.08 159.539 203.59 159.589 204.753 159.589C204.852 157.63 204.952 155.206 205.052 152.317C205.151 149.428 205.234 146.29 205.301 142.903C205.367 139.483 205.433 135.996 205.5 132.443C205.566 128.856 205.616 125.37 205.649 121.983C205.682 118.595 205.699 115.491 205.699 112.668C205.699 111.141 205.699 109.729 205.699 108.434C205.699 107.139 205.682 105.977 205.649 104.947C206.845 105.014 208.173 105.08 209.634 105.147C211.062 105.18 212.54 105.23 214.067 105.296C215.595 105.363 217.072 105.412 218.5 105.446C219.928 105.479 221.24 105.512 222.435 105.545ZM121.655 146.788C123.316 148.98 125.341 151.038 127.732 152.964C130.123 154.857 132.846 156.418 135.901 157.647C138.956 158.842 142.293 159.44 145.913 159.44C150.396 159.44 154.381 158.61 157.867 156.949C161.321 155.256 164.226 152.898 166.584 149.876C168.942 146.821 170.735 143.251 171.964 139.167C173.192 135.049 173.807 130.583 173.807 125.768C173.807 119.492 172.744 113.88 170.619 108.932C168.46 103.951 165.339 100.033 161.254 97.1771C157.137 94.2881 152.106 92.8436 146.162 92.8436C141.281 92.8436 136.764 93.8896 132.614 95.9817C128.463 98.0737 125.242 101.129 122.95 105.147C123.747 106.01 124.793 106.99 126.089 108.086C127.384 109.148 128.712 110.178 130.073 111.174C131.402 112.137 132.547 112.917 133.51 113.515C133.676 113.116 134.042 112.469 134.606 111.572C135.137 110.642 135.901 109.696 136.897 108.733C137.86 107.737 139.106 106.89 140.633 106.193C142.127 105.495 143.921 105.147 146.013 105.147C147.806 105.147 149.483 105.578 151.043 106.442C152.571 107.305 153.916 108.584 155.078 110.277C156.207 111.971 157.104 114.046 157.768 116.503C158.399 118.928 158.714 121.717 158.714 124.872C158.714 127.694 158.432 130.351 157.867 132.841C157.303 135.332 156.489 137.523 155.427 139.416C154.331 141.309 153.003 142.787 151.442 143.849C149.881 144.879 148.121 145.393 146.162 145.393C144.037 145.393 142.078 144.978 140.284 144.148C138.491 143.318 136.864 142.272 135.403 141.01C133.942 139.715 132.647 138.387 131.518 137.025C130.455 137.723 129.276 138.652 127.981 139.815C126.686 140.944 125.474 142.139 124.345 143.401C123.183 144.63 122.286 145.759 121.655 146.788ZM112.803 158.792C112.936 157.331 113.102 155.139 113.301 152.217C113.501 149.262 113.7 145.858 113.899 142.006C114.065 138.154 114.215 134.103 114.347 129.853C114.48 125.569 114.596 121.368 114.696 117.251C114.762 113.1 114.796 109.281 114.796 105.794C114.796 103.536 114.779 101.494 114.746 99.6676C114.679 97.808 114.596 96.2639 114.497 95.0353C114.198 95.0021 113.484 94.9523 112.355 94.8858C111.226 94.8194 109.914 94.753 108.42 94.6866C106.926 94.6202 105.481 94.5704 104.086 94.5372C102.659 94.4708 101.513 94.4376 100.65 94.4376C100.716 96.2307 100.766 98.2563 100.799 100.514C100.799 102.772 100.799 104.931 100.799 106.99C100.799 109.646 100.766 112.319 100.699 115.009C100.633 117.666 100.567 119.492 100.5 120.488C99.7696 120.422 98.8896 120.355 97.8602 120.289C96.7976 120.189 95.6685 120.123 94.4731 120.09C93.2777 120.023 92.0988 119.974 90.9366 119.94C89.7411 119.874 88.6453 119.824 87.6491 119.791C86.6529 119.724 85.8227 119.691 85.1586 119.691C85.1254 118.529 85.0756 116.885 85.0092 114.76C84.9428 112.635 84.8764 110.31 84.8099 107.787C84.7435 105.23 84.6605 102.723 84.5609 100.265C84.4613 97.808 84.3617 95.6994 84.262 93.9395C83.5979 93.873 82.8009 93.8398 81.8711 93.8398C80.9414 93.8398 80.0282 93.8398 79.1316 93.8398C77.3052 93.8398 75.5453 93.873 73.8517 93.9395C72.125 93.9727 70.8299 94.0557 69.9665 94.1885C70.1326 95.2511 70.2986 96.8284 70.4646 98.9205C70.6307 101.012 70.7967 103.453 70.9627 106.243C71.0956 109.032 71.2284 112.021 71.3612 115.208C71.494 118.396 71.6269 121.65 71.7597 124.971C71.8593 128.259 71.9589 131.48 72.0586 134.634C72.1582 137.889 72.2412 141.043 72.3076 144.098C72.374 147.153 72.4238 149.926 72.457 152.417C72.4902 154.907 72.5068 156.933 72.5068 158.493C73.171 158.527 74.217 158.576 75.6449 158.643C77.0396 158.709 78.5837 158.759 80.2772 158.792C81.9376 158.825 83.5813 158.842 85.2084 158.842C85.2084 156.617 85.225 154.309 85.2582 151.918C85.2582 149.528 85.2582 147.153 85.2582 144.796C85.2582 142.438 85.2582 140.18 85.2582 138.021C85.2582 135.83 85.2582 133.837 85.2582 132.044C85.9556 132.077 86.8023 132.111 87.7985 132.144C88.7948 132.144 89.874 132.16 91.0362 132.194C92.1652 132.227 93.2943 132.26 94.4233 132.293C95.5523 132.293 96.6149 132.31 97.6111 132.343C98.5741 132.343 99.3545 132.343 99.9522 132.343C99.8526 134.335 99.753 136.677 99.6534 139.366C99.5205 142.023 99.4043 144.679 99.3047 147.336C99.1719 149.992 99.0556 152.3 98.956 154.26C98.8564 156.219 98.8066 157.514 98.8066 158.145C99.4707 158.244 100.417 158.327 101.646 158.394C102.874 158.46 104.203 158.527 105.631 158.593C107.058 158.659 108.42 158.709 109.715 158.742C110.977 158.776 112.006 158.792 112.803 158.792ZM42.8823 131.596C43.7124 130.467 44.6588 129.039 45.7215 127.312C46.7509 125.552 47.8633 123.626 49.0587 121.534C50.2542 119.442 51.4496 117.251 52.6451 114.959C53.8405 112.668 55.0193 110.393 56.1816 108.135C57.3438 105.844 58.423 103.652 59.4192 101.56C60.3822 99.4352 61.229 97.5258 61.9596 95.8322C59.2698 94.836 56.6963 94.1387 54.239 93.7402C51.7485 93.3085 49.6731 93.0761 48.0127 93.0429C47.7471 93.6738 47.3154 94.7364 46.7177 96.2307C46.1199 97.725 45.4226 99.4352 44.6256 101.361C43.7955 103.287 42.9321 105.28 42.0355 107.338C41.1389 109.364 40.2756 111.29 39.4454 113.116C38.6152 114.91 37.9013 116.404 37.3035 117.599C36.9383 116.802 36.3738 115.64 35.61 114.113C34.8462 112.552 33.9995 110.808 33.0697 108.882C32.1067 106.956 31.1271 105.014 30.1309 103.055C29.1015 101.096 28.1717 99.3023 27.3415 97.6752C26.4781 96.0149 25.7808 94.7198 25.2495 93.79C23.6224 93.9561 21.9952 94.3047 20.3681 94.836C18.7078 95.3673 17.1637 95.9651 15.7358 96.6292C14.2747 97.2933 13.0294 97.9575 12 98.6216C13.4611 100.581 15.1713 103.171 17.1304 106.392C19.0896 109.58 21.2149 113.233 23.5061 117.35C25.7642 121.468 28.0887 125.901 30.4796 130.65C30.4131 132.277 30.3633 134.12 30.3301 136.178C30.2637 138.204 30.2139 140.18 30.1807 142.106C30.1475 143.999 30.1309 145.559 30.1309 146.788C30.1309 148.249 30.1475 149.826 30.1807 151.52C30.1807 153.18 30.1807 154.658 30.1807 155.953C30.1807 157.215 30.1807 158.045 30.1807 158.444C30.5792 158.576 31.3429 158.693 32.472 158.792C33.5678 158.892 34.7798 158.942 36.1081 158.942C37.536 158.942 38.9639 158.892 40.3918 158.792C41.7865 158.659 42.9819 158.51 43.9781 158.344C43.9781 156.783 43.9449 154.857 43.8785 152.566C43.8121 150.275 43.7291 147.851 43.6294 145.294C43.5298 142.737 43.4136 140.263 43.2808 137.872C43.1479 135.481 43.0151 133.389 42.8823 131.596Z" fill="#690B22"/>
<defs>
<filter id="filter0_g_11_91" x="0" y="0" width="357.704" height="170.639" filterUnits="userSpaceOnUse" color-interpolation-filters="sRGB">
<feFlood flood-opacity="0" result="BackgroundImageFix"/>
<feBlend mode="normal" in="SourceGraphic" in2="BackgroundImageFix" result="shape"/>
<feTurbulence type="fractalNoise" baseFrequency="0.99900001287460327 0.99900001287460327" numOctaves="3" seed="322" />
<feDisplacementMap in="shape" scale="20" xChannelSelector="R" yChannelSelector="G" result="displacedImage" width="100%" height="100%" />
<feMerge result="effect1_texture_11_91">
<feMergeNode in="displacedImage"/>
</feMerge>
</filter>
</defs>
</svg>
